Coordinates
version=1
nRows=14
nColumns=40
inDegrees=yes

Units are S.I. units (second, meters, Newtons, ...)
Angles are in degrees.

endheader
time	pelvis_tilt	pelvis_list	pelvis_rotation	pelvis_tx	pelvis_ty	pelvis_tz	hip_flexion_r	hip_adduction_r	hip_rotation_r	knee_angle_r	knee_angle_r_beta	ankle_angle_r	subtalar_angle_r	mtp_angle_r	hip_flexion_l	hip_adduction_l	hip_rotation_l	knee_angle_l	knee_angle_l_beta	ankle_angle_l	subtalar_angle_l	mtp_angle_l	lumbar_extension	lumbar_bending	lumbar_rotation	arm_flex_r	arm_add_r	arm_rot_r	elbow_flex_r	pro_sup_r	wrist_flex_r	wrist_dev_r	arm_flex_l	arm_add_l	arm_rot_l	elbow_flex_l	pro_sup_l	wrist_flex_l	wrist_dev_l
     14.60500000	     -6.12469975	     -6.68775910	      3.44172527	      0.96212720	      0.92922937	      0.50046392	     10.43541903	      5.84762577	    -17.46906964	     12.17345782	     12.17345782	      9.94369785	      4.38507239	     -3.26435447	     43.98147741	    -12.79985788	      4.24524669	     64.71407747	     64.71407747	      3.67846931	    -17.99802411	      8.35424447	    -12.57919719	      3.93009261	      3.92911259	     18.24935874	    -16.53344955	      3.19091332	     71.53818829	     44.80337272	      0.00000000	      0.00000000	     -3.24783146	     -6.23618137	     -8.45087243	     22.75022801	     46.82701910	      0.00000000	      0.00000000
     14.61657143	     -6.20070318	     -6.76742562	      3.55109759	      0.96107419	      0.92910492	      0.50048093	      9.79437852	      6.03427698	    -17.56205613	     11.71749855	     11.71749855	     10.14407845	      4.55594583	     -3.24819382	     44.68427250	    -12.67523665	      4.04859245	     62.22981486	     62.22981486	      4.21211117	    -18.06806791	      9.50950733	    -12.59978463	      4.02922993	      3.88127977	     19.96434326	    -16.59996824	      3.41849249	     74.56398817	     44.71293838	      0.00000000	      0.00000000	     -4.45533571	     -6.24380410	     -8.21821616	     22.41795333	     46.74503276	      0.00000000	      0.00000000
     14.62814286	     -6.35002358	     -6.79320821	      3.61495791	      0.95997882	      0.92881150	      0.50027514	      9.26798985	      6.13012875	    -17.50432849	     11.34723713	     11.34723713	     10.43110025	      4.77895307	     -3.29996086	     45.25900266	    -12.44950801	      3.90943714	     59.44349292	     59.44349292	      4.59404981	    -17.96059911	     10.32870690	    -12.54938721	      4.10473116	      4.07627502	     21.67918962	    -16.84259940	      3.48812669	     77.16748588	     44.64260756	      0.00000000	      0.00000000	     -5.52038216	     -6.24330249	     -7.95158131	     22.36890350	     46.65618381	      0.00000000	      0.00000000
     14.63971429	     -6.46603720	     -6.82603075	      3.68394914	      0.95899335	      0.92846309	      0.49988655	      8.68248696	      6.22848383	    -17.52308454	     10.94734696	     10.94734696	     10.69944808	      5.02851764	     -3.33434773	     45.58964086	    -12.16118330	      3.91698057	     56.37229866	     56.37229866	      4.95843243	    -17.75613249	     10.86191915	    -12.52541743	      4.20476113	      4.09644769	     23.37246450	    -16.86654166	      3.57720118	     80.01891720	     44.56425192	      0.00000000	      0.00000000	     -6.66470080	     -6.26208304	     -7.63702263	     22.44924572	     46.55412337	      0.00000000	      0.00000000
     14.65128571	     -6.73056820	     -6.93333596	      3.69540441	      0.95793958	      0.92772492	      0.49947570	      8.36916923	      6.36780532	    -17.50549963	     10.75501577	     10.75501577	     11.01845986	      5.12972468	     -3.44540427	     45.94146650	    -11.94802365	      4.03942152	     53.10153249	     53.10153249	      5.27961375	    -17.20528062	     11.16717678	    -12.21432553	      4.35303200	      4.58751976	     25.19003553	    -17.11370468	      3.34455625	     81.27516239	     44.54105016	      0.00000000	      0.00000000	     -7.45131017	     -6.22453515	     -7.57365733	     22.32217864	     46.52182376	      0.00000000	      0.00000000
     14.66285714	     -6.71922308	     -6.85958609	      3.77312207	      0.95726438	      0.92738652	      0.49869417	      7.50411704	      6.36267946	    -17.53790818	     10.15836763	     10.15836763	     11.36284597	      5.59321741	     -3.44186019	     45.69028505	    -11.50944014	      4.20205802	     49.53064193	     49.53064193	      5.55049835	    -16.66647782	     11.31178728	    -12.38097595	      4.37136897	      4.14232595	     26.95035471	    -16.64807624	      3.63877674	     85.17560435	     44.42206920	      0.00000000	      0.00000000	     -8.83184379	     -6.24002716	     -7.24679758	     22.62873337	     46.40924810	      0.00000000	      0.00000000
     14.67442857	     -6.83548294	     -6.92521013	      3.79032019	      0.95664190	      0.92661623	      0.49796113	      6.87569100	      6.47853743	    -17.60704179	      9.74379374	      9.74379374	     11.71630201	      6.02259444	     -3.47460262	     45.44574179	    -11.24673737	      4.48768820	     45.83267864	     45.83267864	      5.92762846	    -15.75343881	     11.23574151	    -12.31154251	      4.49491085	      4.36242788	     28.44739106	    -16.79631913	      3.82809507	     88.41384938	     44.33069939	      0.00000000	      0.00000000	    -10.00227074	     -6.27583909	     -6.85493961	     23.31610656	     46.28534447	      0.00000000	      0.00000000
     14.68600000	     -6.95903846	     -7.06195416	      3.82456290	      0.95617094	      0.92562456	      0.49708998	      6.23595873	      6.65526825	    -17.75752082	      9.30377800	      9.30377800	     12.10065611	      6.53955248	     -3.45661597	     45.10313909	    -11.07829773	      4.82374426	     42.11203095	     42.11203095	      6.22272922	    -14.59280363	     10.94508767	    -12.23207454	      4.73763710	      4.67690071	     29.80179382	    -17.07123565	      3.96515483	     92.10276750	     44.23632661	      0.00000000	      0.00000000	    -11.23745123	     -6.34682096	     -6.09656962	     24.46194091	     46.08629388	      0.00000000	      0.00000000
     14.69757143	     -7.02333017	     -7.06232003	      3.77538126	      0.95599028	      0.92464576	      0.49614845	      5.55238944	      6.68732173	    -17.65012081	      8.98060328	      8.98060328	     12.56188383	      6.82464828	     -3.51956477	     44.43373411	    -10.88426223	      4.94688341	     38.29314223	     38.29314223	      6.69083725	    -13.36174385	     11.10130054	    -12.10659331	      4.77843816	      4.88456747	     31.41309330	    -16.90302785	      3.89220977	     94.37982033	     44.18568963	      0.00000000	      0.00000000	    -12.22157552	     -6.42011650	     -5.63108373	     24.80546452	     45.97064667	      0.00000000	      0.00000000
     14.70914286	     -7.13253561	     -7.10033225	      3.76112182	      0.95599187	      0.92338005	      0.49504939	      4.88840169	      6.75388592	    -17.57031395	      8.61358350	      8.61358350	     13.01478442	      7.08386078	     -3.58941886	     43.75120903	    -10.73367174	      5.00266228	     34.62843596	     34.62843596	      7.13804203	    -12.10029489	     11.44405648	    -11.90008851	      4.89102447	      5.02767125	     33.12443222	    -16.69312298	      3.85621631	     96.54176753	     44.13442390	      0.00000000	      0.00000000	    -13.09375974	     -6.41682114	     -5.31103768	     25.05862935	     45.88863698	      0.00000000	      0.00000000
     14.72071429	     -7.09607658	     -7.29117383	      3.76326714	      0.95639658	      0.92203024	      0.49392755	      4.02710749	      6.99381204	    -17.62373621	      8.22413083	      8.22413083	     13.65792358	      7.62225315	     -3.15654981	     42.92944050	    -10.78003557	      4.95893692	     31.30745335	     31.30745335	      7.62626296	    -10.86534742	     12.02778157	    -11.88211051	      5.21599064	      5.75514369	     33.91430277	    -17.11494738	      3.63681445	    100.81101542	     44.27826416	      0.00000000	      0.00000000	    -14.97637062	     -7.90223669	      3.53652870	     28.39072704	     44.46994244	      0.00000000	      0.00000000
     14.73228571	     -7.07003532	     -7.34317757	      3.70443370	      0.95702944	      0.92057272	      0.49268626	      3.22060553	      7.06931532	    -17.41818896	      7.95439200	      7.95439200	     14.17727368	      7.74898671	     -3.32403594	     42.00011940	    -10.75062747	      4.58863545	     28.25999927	     28.25999927	      7.91449820	     -9.90612842	     12.61286956	    -11.72727206	      5.32921441	      5.75641819	     35.54635290	    -16.61587916	      3.66673105	    102.61509029	     44.23609438	      0.00000000	      0.00000000	    -15.75430540	     -7.87666796	      3.53379280	     28.29622824	     44.47210939	      0.00000000	      0.00000000
     14.74385714	     -7.16645381	     -7.62321365	      3.65404322	      0.95778986	      0.91867396	      0.49139900	      2.62828818	      7.34936422	    -17.26184878	      7.82920259	      7.82920259	     14.66265438	      7.83128813	     -3.49863098	     41.34857483	    -10.90101245	      4.18027581	     25.78129584	     25.78129584	      8.06346549	     -9.16591907	     13.11808544	    -11.32280965	      5.71898395	      5.94084417	     37.09998739	    -16.36436072	      3.61738673	    103.97002389	     44.20577021	      0.00000000	      0.00000000	    -16.40425970	     -7.80754748	      3.52152507	     28.23938813	     44.46977662	      0.00000000	      0.00000000
     14.75542857	     -6.96034622	     -7.53295574	      3.63341333	      0.95908018	      0.91728797	      0.48988347	      1.54125761	      7.27886333	    -16.96739804	      7.50019962	      7.50019962	     15.22733656	      7.90253985	     -3.53323460	     40.22563871	    -10.75125579	      3.30855163	     23.70485303	     23.70485303	      8.17928311	     -8.59645372	     13.71728260	    -11.39710444	      5.66408399	      5.63387567	     38.36468416	    -15.60120756	      4.10168521	    106.98465229	     44.11438401	      0.00000000	      0.00000000	    -17.25318604	     -7.78427372	      3.41857492	     28.53174419	     44.49026684	      0.00000000	      0.00000000
